# xmcd CD database file
#
# Track frame offsets:
#	150
#	19455
#	42746
#	60826
#	87531
#	105926
#	130071
#	147884
#	167084
#	183886
#	200911
#	222814
#	244671
#	264206
#	284285
#	305110
#
# Disc length: 4316 seconds
#
# Revision: 0
# Processed by: cddbd v1.5.2PL0 Copyright (c) Steve Scherf et al.
# Submitted via: CDex 1.51
#
DISCID=e810da10
DTITLE=Various Artist - Forever Voyage
DYEAR=2009
DGENRE=New Age
TTITLE0=Enigma - Sadness
TTITLE1=Craig Armstrong - After the Storm
TTITLE2=Adiemus - Adiemus
TTITLE3=Ryuichi Sakamoto - The Last Emperor
TTITLE4=Robert Miles - Children
TTITLE5=Dario G - Voices
TTITLE6=Mike Oldfield - Sentinel
TTITLE7=Julee Cruise - Falling
TTITLE8=Monjes Budistas - Open Up Your Arms
TTITLE9=1 Giant Leap/Michael Stipe/Asha Bhosle - The Way You Dream
TTITLE10=Vangelis - Conquest of Paradise
TTITLE11=Celestial - Cang Ding
TTITLE12=Beautiful World - In Existence
TTITLE13=Da Lata - Rain Song
TTITLE14=Ryuichi Sakamoto - Asadoya Yunta
TTITLE15=Sarah Brightman - Time to Say Goodbye (Con Te Partiro)
EXTD=YEAR: 2009
EXTT0=
EXTT1=
EXTT2=
EXTT3=
EXTT4=
EXTT5=
EXTT6=
EXTT7=
EXTT8=
EXTT9=
EXTT10=
EXTT11=
EXTT12=
EXTT13=
EXTT14=
EXTT15=
PLAYORDER=
